<?xml version="1.0" encoding="UTF-8" standalone="no"?>
<svg
   xmlns:dc="http://purl.org/dc/elements/1.1/"
   xmlns:cc="http://creativecommons.org/ns#"
   xmlns:rdf="http://www.w3.org/1999/02/22-rdf-syntax-ns#"
   xmlns:svg="http://www.w3.org/2000/svg"
   xmlns="http://www.w3.org/2000/svg"
   xmlns:sodipodi="http://sodipodi.sourceforge.net/DTD/sodipodi-0.dtd"
   xmlns:inkscape="http://www.inkscape.org/namespaces/inkscape"
   width="80mm"
   height="40mm"
   viewBox="0 0 80 40"
   version="1.1"
   id="svg2306"
   inkscape:version="1.0.1 (3bc2e813f5, 2020-09-07)"
   sodipodi:docname="genfysh.svg">
  <defs
     id="defs2300">
    <inkscape:path-effect
       effect="bspline"
       id="path-effect3051"
       is_visible="true"
       lpeversion="1"
       weight="33.333333"
       steps="2"
       helper_size="0"
       apply_no_weight="true"
       apply_with_weight="true"
       only_selected="false" />
    <inkscape:path-effect
       effect="bspline"
       id="path-effect3032"
       is_visible="true"
       lpeversion="1"
       weight="33.333333"
       steps="2"
       helper_size="0"
       apply_no_weight="true"
       apply_with_weight="true"
       only_selected="false" />
    <inkscape:path-effect
       effect="bspline"
       id="path-effect2977"
       is_visible="true"
       lpeversion="1"
       weight="33.333333"
       steps="2"
       helper_size="0"
       apply_no_weight="true"
       apply_with_weight="true"
       only_selected="false" />
    <inkscape:path-effect
       effect="bspline"
       id="path-effect2969"
       is_visible="true"
       lpeversion="1"
       weight="33.333333"
       steps="2"
       helper_size="0"
       apply_no_weight="true"
       apply_with_weight="true"
       only_selected="false" />
    <inkscape:path-effect
       effect="bspline"
       id="path-effect2965"
       is_visible="true"
       lpeversion="1"
       weight="33.333333"
       steps="2"
       helper_size="0"
       apply_no_weight="true"
       apply_with_weight="true"
       only_selected="false" />
    <inkscape:path-effect
       effect="bspline"
       id="path-effect2961"
       is_visible="true"
       lpeversion="1"
       weight="33.333333"
       steps="2"
       helper_size="0"
       apply_no_weight="true"
       apply_with_weight="true"
       only_selected="false" />
    <inkscape:path-effect
       effect="bspline"
       id="path-effect2957"
       is_visible="true"
       lpeversion="1"
       weight="33.333333"
       steps="2"
       helper_size="0"
       apply_no_weight="true"
       apply_with_weight="true"
       only_selected="false" />
    <inkscape:path-effect
       effect="bspline"
       id="path-effect2953"
       is_visible="true"
       lpeversion="1"
       weight="33.333333"
       steps="2"
       helper_size="0"
       apply_no_weight="true"
       apply_with_weight="true"
       only_selected="false" />
    <inkscape:path-effect
       effect="bspline"
       id="path-effect2949"
       is_visible="true"
       lpeversion="1"
       weight="33.333333"
       steps="2"
       helper_size="0"
       apply_no_weight="true"
       apply_with_weight="true"
       only_selected="false" />
    <inkscape:path-effect
       effect="bspline"
       id="path-effect2945"
       is_visible="true"
       lpeversion="1"
       weight="33.333333"
       steps="2"
       helper_size="0"
       apply_no_weight="true"
       apply_with_weight="true"
       only_selected="false" />
    <inkscape:path-effect
       effect="bspline"
       id="path-effect2941"
       is_visible="true"
       lpeversion="1"
       weight="33.333333"
       steps="2"
       helper_size="0"
       apply_no_weight="true"
       apply_with_weight="true"
       only_selected="false" />
    <inkscape:path-effect
       effect="bspline"
       id="path-effect2933"
       is_visible="true"
       lpeversion="1"
       weight="33.333333"
       steps="2"
       helper_size="0"
       apply_no_weight="true"
       apply_with_weight="true"
       only_selected="false" />
    <inkscape:path-effect
       effect="bspline"
       id="path-effect2929"
       is_visible="true"
       lpeversion="1"
       weight="33.333333"
       steps="2"
       helper_size="0"
       apply_no_weight="true"
       apply_with_weight="true"
       only_selected="false" />
    <inkscape:path-effect
       effect="bspline"
       id="path-effect2925"
       is_visible="true"
       lpeversion="1"
       weight="33.333333"
       steps="2"
       helper_size="0"
       apply_no_weight="true"
       apply_with_weight="true"
       only_selected="false" />
    <inkscape:path-effect
       effect="bspline"
       id="path-effect2921"
       is_visible="true"
       lpeversion="1"
       weight="33.333333"
       steps="2"
       helper_size="0"
       apply_no_weight="true"
       apply_with_weight="true"
       only_selected="false" />
    <inkscape:path-effect
       effect="bspline"
       id="path-effect2917"
       is_visible="true"
       lpeversion="1"
       weight="33.333333"
       steps="2"
       helper_size="0"
       apply_no_weight="true"
       apply_with_weight="true"
       only_selected="false" />
    <inkscape:path-effect
       effect="bspline"
       id="path-effect2913"
       is_visible="true"
       lpeversion="1"
       weight="33.333333"
       steps="2"
       helper_size="0"
       apply_no_weight="true"
       apply_with_weight="true"
       only_selected="false" />
    <inkscape:path-effect
       effect="bspline"
       id="path-effect2909"
       is_visible="true"
       lpeversion="1"
       weight="33.333333"
       steps="2"
       helper_size="0"
       apply_no_weight="true"
       apply_with_weight="true"
       only_selected="false" />
    <inkscape:path-effect
       effect="bspline"
       id="path-effect2905"
       is_visible="true"
       lpeversion="1"
       weight="33.333333"
       steps="2"
       helper_size="0"
       apply_no_weight="true"
       apply_with_weight="true"
       only_selected="false" />
    <inkscape:path-effect
       effect="bspline"
       id="path-effect2901"
       is_visible="true"
       lpeversion="1"
       weight="33.333333"
       steps="2"
       helper_size="0"
       apply_no_weight="true"
       apply_with_weight="true"
       only_selected="false" />
    <inkscape:path-effect
       effect="bspline"
       id="path-effect2897"
       is_visible="true"
       lpeversion="1"
       weight="33.333333"
       steps="2"
       helper_size="0"
       apply_no_weight="true"
       apply_with_weight="true"
       only_selected="false" />
    <inkscape:path-effect
       effect="bspline"
       id="path-effect2893"
       is_visible="true"
       lpeversion="1"
       weight="33.333333"
       steps="2"
       helper_size="0"
       apply_no_weight="true"
       apply_with_weight="true"
       only_selected="false" />
    <inkscape:path-effect
       effect="bspline"
       id="path-effect2885"
       is_visible="true"
       lpeversion="1"
       weight="33.333333"
       steps="2"
       helper_size="0"
       apply_no_weight="true"
       apply_with_weight="true"
       only_selected="false" />
  </defs>
  <sodipodi:namedview
     id="base"
     pagecolor="#ffffff"
     bordercolor="#666666"
     borderopacity="1.0"
     inkscape:pageopacity="0.0"
     inkscape:pageshadow="2"
     inkscape:zoom="1.4"
     inkscape:cx="-63.357622"
     inkscape:cy="-157.63612"
     inkscape:document-units="mm"
     inkscape:current-layer="layer1"
     inkscape:document-rotation="0"
     showgrid="false"
     inkscape:window-width="3440"
     inkscape:window-height="1417"
     inkscape:window-x="-8"
     inkscape:window-y="-8"
     inkscape:window-maximized="1"
     width="35mm" />
  <metadata
     id="metadata2303">
    <rdf:RDF>
      <cc:Work
         rdf:about="">
        <dc:format>image/svg+xml</dc:format>
        <dc:type
           rdf:resource="http://purl.org/dc/dcmitype/StillImage" />
        <dc:title></dc:title>
      </cc:Work>
    </rdf:RDF>
  </metadata>
  <g
     inkscape:label="Layer 1"
     inkscape:groupmode="layer"
     id="layer1">
    <path
       style="fill:none;stroke:#000000;stroke-width:1.58514;stroke-linecap:round;stroke-linejoin:miter;stroke-miterlimit:4;stroke-dasharray:none;stroke-opacity:1"
       d="m 46.365832,11.949042 c 0.51569,-1.24767 1.031612,-2.4959003 2.047204,-3.4615907 1.015591,-0.9656904 2.530096,-1.6480459 4.394397,-2.0223726 1.864301,-0.3743267 4.077737,-0.4408304 5.966862,-0.1742292 1.889125,0.2666013 3.453508,0.8657226 4.743297,1.5399666 1.289788,0.674244 2.305003,1.4231699 3.436561,2.6465959 1.131558,1.223426 2.379747,2.920965 3.245199,4.085969 0.865453,1.165003 1.348077,1.797395 1.988934,2.496327 0.640856,0.698931 1.439713,1.464507 2.471615,2.379838 1.031902,0.915332 2.296721,1.980448 3.020448,2.696309 0.723726,0.715861 0.90676,1.081924 0.997956,1.414586 0.0912,0.332663 0.0912,0.632361 -0.03367,0.923107 -0.124864,0.290745 -0.374506,0.573668 -0.657092,0.78983 -0.282586,0.216162 -0.598897,0.365976 -1.214402,0.457599 -0.615504,0.09162 -1.530891,0.124878 -3.061985,0.07498 -1.531094,-0.04989 -3.678,-0.183044 -6.016306,-0.474224 -2.338307,-0.291179 -4.867971,-0.740521 -7.148034,-1.223113 -2.280064,-0.482592 -4.310466,-0.998518 -5.791902,-1.173514 -1.481435,-0.174996 -2.413423,-0.0086 -3.919778,0.490694 -1.506355,0.499259 -3.586649,1.331379 -5.508941,2.121929 -1.922292,0.79055 -3.686418,1.539476 -5.02617,2.097015 -1.339752,0.557539 -2.255082,0.923659 -3.361755,1.298131 -1.106672,0.374473 -2.404824,0.757276 -3.270128,0.973667 -0.865304,0.216391 -1.298027,0.266273 -1.813941,0.324466 -0.515915,0.05819 -1.115088,0.124702 -1.905482,0.09982 -0.790393,-0.02489 -1.772312,-0.14141 -2.837456,-0.299502 -1.065144,-0.158092 -2.213417,-0.357805 -3.128846,-0.490979 -0.91543,-0.133175 -1.597747,-0.199677 -2.321809,-0.19978 -0.724062,-1.04e-4 -1.489647,0.0664 -2.130987,0.449321 -0.64134,0.382918 -1.157244,1.081885 -1.656219,1.555993 -0.498975,0.474107 -0.981654,0.723776 -1.472935,1.256617 -0.491281,0.532841 -0.990568,1.348331 -1.340089,2.02253 -0.349522,0.674199 -0.549203,1.206703 -0.648951,1.706272 -0.09975,0.49957 -0.09975,0.965547 -0.773267,1.222913 -0.673519,0.257366 -2.021554,0.307244 -3.169795,0.141074 C 9.3201274,37.529116 8.3715008,37.146337 7.6972644,36.664101 7.023028,36.181865 6.623547,35.599308 6.0325453,34.351102 5.4415435,33.102897 4.6593598,31.18904 4.1766246,29.899213 3.6938894,28.609387 3.5107892,27.943572 2.9537484,27.360791 2.3967076,26.778011 1.4647408,26.278729 1.231341,25.928737 0.9979412,25.578744 1.4638984,25.379053 2.9119856,24.962992 c 1.4480873,-0.41606 3.8779088,-1.048468 5.8752216,-1.364573 1.9973128,-0.316106 3.5617308,-0.316106 5.0261738,-0.449333 1.464442,-0.133228 2.829158,-0.39952 4.384906,-1.256611 1.555748,-0.857092 3.303217,-2.305008 5.100586,-3.994213 1.79737,-1.689204 3.644695,-3.619735 5.95837,-5.184305 2.313675,-1.56457 5.092993,-2.7628308 7.53966,-3.5866226 2.446667,-0.8237918 4.56026,-1.2731411 6.407899,-1.2978363 1.847639,-0.024695 3.428628,0.3747057 5.008365,0.7737906"
       id="path2883"
       inkscape:path-effect="#path-effect2885"
       inkscape:original-d="m 46.365832,11.949042 c 0.517053,-1.247107 1.032964,-2.4953414 1.547764,-3.7446883 1.515651,-0.6812174 3.030148,-1.3635901 4.543504,-2.0470619 2.214665,-0.065519 4.428105,-0.1318839 6.640488,-0.1995167 1.565615,0.6002411 3.129991,1.1993832 4.693311,1.7974249 1.016352,0.7500351 2.03155,1.4989839 3.045661,2.24679 1.249335,1.698713 2.49754,3.39624 3.744634,5.09271 0.483786,0.63355 0.966388,1.265959 1.447934,1.897255 0.799956,0.766745 1.598827,1.532306 2.396556,2.296712 1.266031,1.066315 2.530849,2.131433 3.794597,3.195466 0.184299,0.367331 0.367331,0.733394 0.549221,1.098428 0.0011,0.300543 0.0011,0.600241 0,0.898713 -0.248551,0.284058 -0.4982,0.566974 -0.748949,0.848792 -0.314915,0.150905 -0.63131,0.300543 -0.948677,0.449321 -0.914214,0.03382 -1.829581,0.06763 -2.746035,0.09976 -2.14585,-0.131884 -4.292756,-0.265036 -6.440803,-0.399456 -2.528651,-0.448236 -5.058316,-0.897572 -7.589123,-1.348048 -2.029352,-0.514855 -4.059761,-1.030753 -6.09131,-1.547805 -0.930924,0.167391 -1.862891,0.333937 -2.796012,0.499299 -2.079274,0.833264 -4.159561,1.665401 -6.241075,2.496438 -1.763048,0.750035 -3.527165,1.498984 -5.292409,2.246791 -0.914269,0.367331 -1.829622,0.733394 -2.746089,1.098399 -1.297057,0.383816 -2.595184,0.766703 -3.894438,1.148404 -0.431582,0.05115 -0.864305,0.101027 -1.298113,0.149638 -0.598043,0.06763 -1.197185,0.13442 -1.797426,0.199516 -0.980831,-0.115398 -1.962733,-0.232065 -2.945804,-0.349577 -1.147263,-0.198671 -2.29557,-0.398188 -3.445074,-0.599183 -0.68126,-0.06552 -1.36359,-0.131884 -2.047062,-0.199517 -0.764449,0.06763 -1.530009,0.134421 -2.296711,0.199517 -0.514855,0.700168 -1.030752,1.39914 -1.547805,2.097026 -0.481503,0.250664 -0.964148,0.500398 -1.447921,0.748947 -0.498157,0.816611 -0.997456,1.632094 -1.497854,2.446463 -0.198672,0.533708 -0.398188,1.066274 -0.59913,1.597741 0.0011,0.46713 0.0011,0.933107 0,1.397998 -1.34699,0.05115 -2.695025,0.101027 -4.044215,0.149638 C 9.3199036,37.529671 8.371269,37.146912 7.4215494,36.763024 7.0233612,36.181637 6.6237782,35.599149 6.2232229,35.01552 5.4421063,33.102667 4.6599469,31.1888 3.87659,29.273749 3.6948269,28.609129 3.5113729,27.943411 3.3273694,27.276594 2.3965025,26.778394 1.4645225,26.279137 0.531373,25.778697 c 0.46711723,-0.198672 0.9331495,-0.398188 1.3979982,-0.599128 2.431047,-0.63131 4.8608682,-1.263719 7.2895904,-1.897256 1.5655584,0.0011 3.1299764,0.0011 4.6933084,0 1.36583,-0.265036 2.730519,-0.531467 4.094123,-0.79887 1.748633,-1.446863 3.496123,-2.894754 5.242486,-4.343815 1.848518,-1.929466 3.695852,-3.859988 5.542087,-5.791707 2.780539,-1.197172 5.559852,-2.3954437 8.338054,-3.5948256 2.114821,-0.4482787 4.228417,-0.8976141 6.340915,-1.3480769 1.582269,0.4007244 3.1633,0.7999553 4.743232,1.1982702" />
    <path
       style="fill:none;stroke:#000000;stroke-width:1.58514;stroke-linecap:butt;stroke-linejoin:miter;stroke-miterlimit:4;stroke-dasharray:none;stroke-opacity:1"
       d="m 56.281468,17.279775 c 1.938649,1.053102 3.875932,2.105461 6.467266,3.114128 2.591335,1.008667 5.836631,1.973947 8.649235,2.547975 2.812603,0.574028 5.192504,0.75708 7.571219,0.940042"
       id="path2895"
       inkscape:path-effect="#path-effect2897"
       inkscape:original-d="m 56.281468,17.279775 c 1.938428,1.053508 3.875715,2.10586 5.81186,3.157085 3.246531,0.966417 6.491824,1.931706 9.736072,2.895895 2.381084,0.184299 4.760986,0.36733 7.139788,0.549165"
       sodipodi:nodetypes="cccc" />
    <path
       style="fill:none;stroke:#000000;stroke-width:1.37379;stroke-linecap:round;stroke-linejoin:miter;stroke-miterlimit:4;stroke-dasharray:none;stroke-opacity:1"
       d="m 35.780943,15.543866 c -0.531258,-0.08307 -1.063865,-0.166349 -1.58855,-0.05841 -0.524685,0.107938 -1.040676,0.407539 -1.631684,0.89862 -0.591008,0.49108 -1.256684,1.17341 -1.67282,2.155838 -0.416137,0.982429 -0.582555,2.263919 -0.557314,3.246008 0.02524,0.98209 0.241605,1.664478 0.824574,2.221653 0.582969,0.557174 1.531594,0.989888 2.546392,0.956179 1.014799,-0.03371 2.096573,-0.532994 2.42122,-1.172958 0.324646,-0.639965 -0.108058,-1.42219 -0.415901,-1.95479 -0.307842,-0.532601 -0.490959,-0.815595 -0.79054,-0.916111 -0.299581,-0.100515 -0.715514,-0.01727 -1.132517,0.06619"
       id="path2903"
       inkscape:path-effect="#path-effect2905"
       inkscape:original-d="m 35.780943,15.543866 c -0.531425,-0.082 -1.064033,-0.165277 -1.597684,-0.249818 -0.514855,0.300543 -1.030766,0.600283 -1.547819,0.898713 -0.664605,0.6835 -1.330281,1.36583 -1.997141,2.047104 -0.165277,1.282642 -0.331823,2.564115 -0.499256,3.844474 0.21727,0.683514 0.433822,1.365843 0.649063,2.047062 0.949776,0.433864 1.898397,0.866587 2.845932,1.298169 1.082914,-0.4982 2.164701,-0.997457 3.245332,-1.497855 -0.431568,-0.781103 -0.864291,-1.563318 -1.298113,-2.346675 -0.181763,-0.281944 -0.365217,-0.56472 -0.549221,-0.848778 -0.415096,0.08412 -0.831024,0.167391 -1.248233,0.249819" />
    <path
       style="fill:none;stroke:#000000;stroke-width:1.11841px;stroke-linecap:round;stroke-linejoin:miter;stroke-opacity:1"
       d="m 41.223144,20.037446 c -0.01665,0.683478 -0.03328,1.365844 0.150449,1.823344 0.183729,0.4575 0.566563,0.690538 0.948034,0.922745"
       id="path2907"
       inkscape:path-effect="#path-effect2909"
       inkscape:original-d="m 41.223144,20.037446 c -0.01691,0.683472 -0.03382,1.365831 -0.04988,2.047062 0.383817,0.234179 0.766703,0.467131 1.148363,0.699027" />
    <path
       style="fill:none;stroke:#000000;stroke-width:1.11841px;stroke-linecap:round;stroke-linejoin:miter;stroke-opacity:1"
       d="m 44.119041,19.438304 c -0.133355,0.466712 -0.266503,0.932703 -0.174442,1.415669 0.09206,0.482966 0.408259,0.982203 0.723662,1.480185"
       id="path2911"
       inkscape:path-effect="#path-effect2913"
       inkscape:original-d="m 44.119041,19.438304 c -0.131884,0.467132 -0.265036,0.933122 -0.399457,1.398012 0.317452,0.500385 0.633551,0.999684 0.948677,1.497842" />
    <path
       style="fill:none;stroke:#000000;stroke-width:1.58514;stroke-linecap:butt;stroke-linejoin:miter;stroke-miterlimit:4;stroke-dasharray:none;stroke-opacity:1"
       d="m 39.775224,27.726451 c 0.03331,0.716791 0.06656,1.432456 -0.09167,2.064425 -0.158229,0.631969 -0.507761,1.181218 -0.490439,1.480688 0.01732,0.299471 0.400195,0.34936 1.256798,-0.116825 0.856603,-0.466185 2.18799,-1.448081 2.861916,-2.36282 0.673926,-0.914739 0.690552,-1.763535 0.707201,-2.613456"
       id="path2915"
       inkscape:path-effect="#path-effect2917"
       inkscape:original-d="m 39.775224,27.726451 c 0.03382,0.716767 0.06763,1.432406 0.09976,2.146947 -0.348309,0.550306 -0.697886,1.099526 -1.048507,1.647606 0.383816,0.05115 0.76669,0.101026 1.148392,0.149637 1.332564,-0.980845 2.663958,-1.962732 3.994282,-2.945775 0.01691,-0.84768 0.03382,-1.69647 0.04988,-2.546403" />
    <path
       style="fill:none;stroke:#000000;stroke-width:1.58514;stroke-linecap:butt;stroke-linejoin:miter;stroke-miterlimit:4;stroke-dasharray:none;stroke-opacity:1"
       d="m 47.114738,24.880519 c 0.216773,0.683628 0.43316,1.36604 0.457816,2.031479 0.02466,0.665439 -0.141778,1.314518 0.09999,1.547025 0.241768,0.232508 0.890932,0.04941 1.423084,-0.27499 0.532152,-0.324399 0.948195,-0.790373 1.239361,-1.297633 0.291167,-0.50726 0.457611,-1.056511 0.491083,-1.65541 0.03347,-0.598899 -0.06642,-1.247941 -0.166513,-1.898235"
       id="path2919"
       inkscape:path-effect="#path-effect2921"
       inkscape:original-d="m 47.114738,24.880519 c 0.217271,0.68347 0.433822,1.36583 0.649106,2.047062 -0.165278,0.650204 -0.331823,1.299254 -0.499299,1.947219 0.650192,-0.181764 1.299256,-0.365218 1.94722,-0.549221 0.41721,-0.464878 0.833236,-0.930867 1.248193,-1.397998 0.167391,-0.54808 0.333937,-1.0973 0.499299,-1.647648 -0.09891,-0.647965 -0.198671,-1.297028 -0.299698,-1.947178" />
    <path
       style="fill:none;stroke:#000000;stroke-width:1.58514;stroke-linecap:butt;stroke-linejoin:miter;stroke-miterlimit:4;stroke-dasharray:none;stroke-opacity:1"
       d="M 39.92503,8.1045108 C 39.176927,6.9241816 38.427998,5.7425484 38.269395,4.8017078 38.110793,3.8608671 38.543484,3.1619026 38.960307,2.8039021 c 0.416822,-0.3580006 0.816079,-0.3746198 1.332059,-0.1411134 0.51598,0.2335064 1.148379,0.7161316 2.130286,0.9486624 0.981906,0.2325307 2.313291,0.2159051 3.411524,0.066018 1.098232,-0.1498866 1.963595,-0.432791 2.812734,-0.432451 0.849139,3.4e-4 1.681257,0.2832608 2.413571,0.5829605 0.732313,0.2996997 1.364666,0.6158851 1.838768,1.0073242 0.474101,0.391439 0.790286,0.8573992 1.105627,1.3221158"
       id="path2923"
       inkscape:path-effect="#path-effect2925"
       inkscape:original-d="M 39.92503,8.1045108 C 39.177223,6.9239942 38.428288,5.7423646 37.67824,4.5596077 c 0.433865,-0.6979283 0.866546,-1.3968992 1.298156,-2.0970255 0.400724,-0.016908 0.799969,-0.033816 1.198284,-0.049879 0.63355,0.4837436 1.265945,0.9663741 1.897255,1.4479197 1.33262,-0.016908 2.664001,-0.033816 3.994326,-0.049879 0.866545,-0.2819443 1.731949,-0.5647212 2.596284,-0.8487776 0.833278,0.2840577 1.665402,0.5669601 2.496398,0.8487776 0.633593,0.3174514 1.265989,0.6335502 1.897299,0.9486768 0.317451,0.4670891 0.63355,0.9331074 0.948634,1.3979983" />
    <path
       style="fill:none;stroke:#000000;stroke-width:1.58514;stroke-linecap:butt;stroke-linejoin:miter;stroke-miterlimit:4;stroke-dasharray:none;stroke-opacity:1"
       d="m 14.661162,23.083106 c -0.582471,0.565832 -1.164952,1.131672 -1.722628,2.014027 -0.557677,0.882355 -1.090253,2.08063 -1.506307,3.287373 -0.416054,1.206743 -0.715623,2.421669 -0.698335,3.020392 0.01729,0.598724 0.350224,0.582094 1.032223,0.299082 0.681998,-0.283012 1.713808,-0.832215 3.092774,-1.208652 1.378967,-0.376437 3.104435,-0.580187 4.828969,-0.783826"
       id="path2927"
       inkscape:path-effect="#path-effect2929"
       inkscape:original-d="m 14.661162,23.083106 c -0.581374,0.566961 -1.163862,1.132794 -1.747491,1.69757 -0.531467,1.199411 -1.064019,2.397696 -1.597726,3.594824 -0.29843,1.21608 -0.598001,2.431005 -0.898713,3.644803 0.333937,-0.01691 0.666859,-0.03382 0.998598,-0.04988 1.032993,-0.548121 2.064816,-1.097299 3.095526,-1.647661 1.726665,-0.202476 3.452133,-0.40622 5.176502,-0.61126"
       sodipodi:nodetypes="ccccccc" />
    <path
       style="fill:none;stroke:#000000;stroke-width:0.507246;stroke-linecap:round;stroke-linejoin:miter;stroke-miterlimit:4;stroke-dasharray:none;stroke-opacity:1"
       d="m 59.541429,12.014096 c 0.296551,-0.499825 0.593219,-0.999844 1.076715,-1.091225 0.483497,-0.09138 1.151916,0.225595 1.819139,0.542004"
       id="path2931"
       inkscape:path-effect="#path-effect2933"
       inkscape:original-d="m 59.541429,12.014096 c 0.298007,-0.498961 0.594534,-0.999064 0.890174,-1.50035 0.669776,0.318297 1.338229,0.6352 2.00568,0.951129"
       sodipodi:nodetypes="ccc" />
    <path
       style="fill:none;stroke:#000000;stroke-width:0.507246;stroke-linecap:round;stroke-linejoin:miter;stroke-miterlimit:4;stroke-dasharray:none;stroke-opacity:1"
       d="m 64.140391,11.549586 c 0.111666,-0.332226 0.223526,-0.665033 0.681594,-0.734725 0.458068,-0.06969 1.260898,0.124157 2.062214,0.317641"
       id="path2939"
       inkscape:path-effect="#path-effect2941"
       inkscape:original-d="m 64.140391,11.549586 c 0.112863,-0.331824 0.22488,-0.664578 0.335628,-0.998557 0.803858,0.194867 1.606647,0.388889 2.40818,0.581473"
       sodipodi:nodetypes="ccc" />
    <path
       style="fill:none;stroke:#000000;stroke-width:0.422705;stroke-linecap:round;stroke-linejoin:miter;stroke-miterlimit:4;stroke-dasharray:none;stroke-opacity:1"
       d="m 2.7282414,27.127309 c 0.5170467,-0.01666 1.0330095,-0.03329 1.5584384,-0.135263 0.525429,-0.101973 1.0609056,-0.289124 1.5956315,-0.476012"
       id="path2943"
       inkscape:path-effect="#path-effect2945"
       inkscape:original-d="m 2.7282414,27.127309 c 0.5170387,-0.01691 1.0329924,-0.03382 1.5478048,-0.04988 0.5365395,-0.185991 1.0719787,-0.373249 1.6062651,-0.561395"
       sodipodi:nodetypes="ccc" />
    <path
       style="fill:none;stroke:#000000;stroke-width:0.422705;stroke-linecap:round;stroke-linejoin:miter;stroke-miterlimit:4;stroke-dasharray:none;stroke-opacity:1"
       d="m 3.7767471,29.224292 c 0.3671393,-0.05001 0.7332598,-0.09989 1.1348185,-0.260033 0.4015586,-0.160144 0.8390332,-0.430399 1.2763615,-0.700564"
       id="path2947"
       inkscape:path-effect="#path-effect2949"
       inkscape:original-d="m 3.7767471,29.224292 c 0.3673306,-0.04861 0.7333932,-0.09891 1.0984412,-0.149637 0.4387243,-0.269264 0.8762113,-0.539499 1.3127388,-0.81096"
       sodipodi:nodetypes="ccc" />
    <path
       style="fill:none;stroke:#000000;stroke-width:0.422705;stroke-linecap:round;stroke-linejoin:miter;stroke-miterlimit:4;stroke-dasharray:none;stroke-opacity:1"
       d="m 4.8045966,32.234656 c 0.5066347,-0.273431 1.0127452,-0.546578 1.5185115,-0.81954"
       id="path2951"
       inkscape:path-effect="#path-effect2953"
       inkscape:original-d="m 4.8045966,32.234656 c 0.507287,-0.272222 1.0134636,-0.545247 1.5185115,-0.81954"
       sodipodi:nodetypes="cc" />
    <path
       style="fill:none;stroke:#000000;stroke-width:0.422705;stroke-linecap:round;stroke-linejoin:miter;stroke-miterlimit:4;stroke-dasharray:none;stroke-opacity:1"
       d="m 6.4728725,34.916142 c 0.444733,-0.341958 0.889126,-0.683655 1.3334513,-1.025299"
       id="path2955"
       inkscape:path-effect="#path-effect2957"
       inkscape:original-d="m 6.4728725,34.916142 c 0.4457002,-0.3407 0.8900899,-0.682401 1.3334513,-1.025299"
       sodipodi:nodetypes="cc" />
    <path
       style="fill:none;stroke:#000000;stroke-width:0.422705;stroke-linecap:round;stroke-linejoin:miter;stroke-miterlimit:4;stroke-dasharray:none;stroke-opacity:1"
       d="M 9.4186898,37.86196 C 9.6730323,37.372757 9.9274859,36.883341 10.18225,36.393327"
       id="path2959"
       inkscape:path-effect="#path-effect2961"
       inkscape:original-d="M 9.4186898,37.86196 C 9.6744263,37.373482 9.9288385,36.884044 10.18225,36.393327"
       sodipodi:nodetypes="cc" />
    <path
       style="fill:none;stroke:#000000;stroke-width:0.422705;stroke-linecap:round;stroke-linejoin:miter;stroke-miterlimit:4;stroke-dasharray:none;stroke-opacity:1"
       d="m 12.014971,37.562388 c 0.115473,-0.481789 0.231165,-0.964493 0.347041,-1.447962"
       id="path2963"
       inkscape:path-effect="#path-effect2965"
       inkscape:original-d="m 12.014971,37.562388 c 0.116667,-0.481503 0.232488,-0.964176 0.347041,-1.447962"
       sodipodi:nodetypes="cc" />
    <path
       style="fill:none;stroke:#000000;stroke-width:0.422705;stroke-linecap:round;stroke-linejoin:miter;stroke-miterlimit:4;stroke-dasharray:none;stroke-opacity:1"
       d="m 44.333183,6.3184693 c 0.816813,0.475091 1.632305,0.9494134 2.446519,1.4229928"
       id="path2967"
       inkscape:path-effect="#path-effect2969"
       inkscape:original-d="m 44.333183,6.3184693 c 0.816624,0.4754163 1.632094,0.9497758 2.446519,1.4229928"
       sodipodi:nodetypes="cc" />
    <ellipse
       style="stroke-width:1.12016;stroke-linecap:round;paint-order:markers stroke fill"
       id="path2985"
       cx="61.634911"
       cy="13.92795"
       rx="1.6505111"
       ry="1.4739859" />
    <ellipse
       style="stroke-width:1.12016;stroke-linecap:round;paint-order:markers stroke fill"
       id="path2989"
       cx="66.419388"
       cy="13.671337"
       rx="1.5092909"
       ry="1.4828122" />
    <ellipse
       style="stroke-width:1.3089;stroke-linecap:round;paint-order:markers stroke fill"
       id="path2995"
       cx="72.50322"
       cy="21.070629"
       rx="0.64601529"
       ry="0.65332717" />
    <ellipse
       style="stroke-width:1.20908;stroke-linecap:round;paint-order:markers stroke fill"
       id="path2995-7"
       cx="73.544113"
       cy="20.010489"
       rx="0.60901213"
       ry="0.59135962" />
    <path
       style="fill:none;stroke:#000000;stroke-width:1.1234;stroke-linecap:round;stroke-linejoin:miter;stroke-miterlimit:4;stroke-dasharray:none;stroke-opacity:1"
       d="m 56.619717,15.941505 c -0.101146,0.487853 -0.202191,0.975214 -0.526601,1.280165 -0.32441,0.304951 -0.872955,0.428377 -1.422154,0.551951"
       id="path3030"
       inkscape:path-effect="#path-effect3032"
       inkscape:original-d="m 56.619717,15.941505 c -0.09976,0.48814 -0.200785,0.975505 -0.30308,1.461827 -0.547614,0.124698 -1.096158,0.248128 -1.645675,0.370289"
       sodipodi:nodetypes="ccc" />
    <path
       style="fill:none;stroke:#000000;stroke-width:0.422705;stroke-linecap:round;stroke-linejoin:miter;stroke-miterlimit:4;stroke-dasharray:none;stroke-opacity:1"
       d="m 48.001434,6.7114158 c 0.366809,0.3551747 0.73239,0.7091608 1.096877,1.0620874"
       id="path2967-4"
       inkscape:path-effect="#path-effect3051"
       inkscape:original-d="m 48.001434,6.7114158 c 0.366908,0.3550722 0.732379,0.7091722 1.096877,1.0620874"
       sodipodi:nodetypes="cc" />
    <path
       style="fill:#ff002a;fill-opacity:1;stroke-width:0.0113224;stroke-linecap:round;stroke-miterlimit:4;stroke-dasharray:none;paint-order:markers stroke fill"
       d="m 48.370033,27.135382 c 0.0011,-0.582698 -0.03804,-0.898332 -0.194867,-1.501055 -0.04734,-0.184299 -0.08285,-0.338586 -0.0782,-0.343236 0.0085,-0.0085 1.237385,-0.480278 1.664274,-0.63913 l 0.237138,-0.08835 0.02114,0.153441 c 0.02536,0.185145 0.0011,0.611359 -0.04481,0.854751 -0.07397,0.388466 -0.289975,0.880482 -0.525506,1.196792 -0.250664,0.336473 -0.598424,0.640863 -0.913508,0.799758 l -0.165701,0.08369 z"
       id="path3073" />
    <path
       style="fill:#ff002a;fill-opacity:1;stroke-width:0.0113224;stroke-linecap:round;stroke-miterlimit:4;stroke-dasharray:none;paint-order:markers stroke fill"
       d="m 40.399644,30.23188 c 1.69e-4,-0.0085 0.01691,-0.07482 0.03804,-0.143297 0.08666,-0.28279 0.139915,-0.699195 0.153865,-1.202679 l 0.01268,-0.503653 1.225957,-0.513701 c 0.674299,-0.282367 1.235778,-0.513627 1.247825,-0.513627 0.06171,1.27e-4 -0.08665,0.407065 -0.2532,0.694279 -0.304348,0.524281 -0.940984,1.15335 -1.793313,1.771599 -0.332246,0.240942 -0.634014,0.436767 -0.633634,0.411292 z"
       id="path3077" />
    <path
       style="fill:#ff002a;fill-opacity:1;stroke-width:0.0113224;stroke-linecap:round;stroke-miterlimit:4;stroke-dasharray:none;paint-order:markers stroke fill"
       d="m 11.356017,36.97449 c -0.38762,-0.02536 -1.101231,-0.114975 -1.130989,-0.144987 -0.0042,-0.0042 0.03382,-0.0875 0.08074,-0.184723 0.133152,-0.264613 0.109057,-0.421436 -0.07144,-0.466835 -0.131461,-0.03382 -0.194021,0.01691 -0.3322457,0.265459 -0.07186,0.129348 -0.1348429,0.24686 -0.1399154,0.260386 -0.016909,0.04227 -0.7073543,-0.203744 -1.0198178,-0.360145 -0.5171796,-0.259118 -0.897445,-0.558731 -1.1903247,-0.937813 -0.1132849,-0.146256 -0.4276916,-0.651388 -0.4276916,-0.6866 0,-0.0085 0.1597825,-0.140338 0.3554949,-0.289975 0.5214362,-0.399034 0.5433746,-0.421015 0.5433746,-0.538146 0,-0.129348 -0.086654,-0.220652 -0.2096617,-0.220652 -0.071437,0 -0.1416062,0.04227 -0.3901567,0.230797 -0.1665458,0.126811 -0.3521133,0.268418 -0.4125601,0.31407 l -0.1099033,0.08285 -0.10314,-0.220229 c -0.253623,-0.541993 -0.810241,-1.79957 -0.938701,-2.121543 -0.00845,-0.01691 0.1035627,-0.09004 0.2586954,-0.172464 0.1483695,-0.07905 0.3005433,-0.164855 0.3377413,-0.19064 0.087077,-0.06002 0.113285,-0.18599 0.060447,-0.288284 -0.079468,-0.153442 -0.1978259,-0.14372 -0.5521795,0.04481 -0.1555554,0.08285 -0.2887075,0.142029 -0.2954708,0.131039 -0.04692,-0.07566 -0.8657282,-2.182877 -0.8657282,-2.227515 0,-0.0085 0.047766,-0.03382 0.106099,-0.04988 0.2451689,-0.07228 1.2724126,-0.632282 1.4354077,-0.782385 0.081582,-0.07524 0.0782,-0.238405 -0.00845,-0.318296 -0.1099033,-0.10314 -0.1864129,-0.08158 -0.6025237,0.169082 -0.4189007,0.252354 -0.716767,0.40791 -0.9464649,0.494564 l -0.1517511,0.05707 -0.033816,-0.09173 C 4.446371,28.292242 4.2058519,27.7528 4.0426032,27.479183 3.981311,27.376043 3.9343907,27.28812 3.9390405,27.28347 c 0.00423,-0.0042 0.1297704,-0.02959 0.2781398,-0.05495 0.3690215,-0.06341 0.680851,-0.147102 1.2665371,-0.340278 0.3322462,-0.10948 0.516461,-0.183031 0.5554767,-0.222343 0.1124395,-0.112439 0.047343,-0.337318 -0.1065217,-0.366908 -0.042271,-0.0085 -0.2527776,0.04903 -0.5860255,0.15936 -0.6224319,0.205858 -1.0275524,0.308152 -1.4413806,0.363526 L 3.5979598,26.864147 3.4309913,26.701828 C 3.2285156,26.504848 3.0103998,26.322662 2.7206496,26.10835 2.6010241,26.01958 2.5114106,25.938846 2.5215556,25.929124 c 0.048188,-0.04692 1.9475992,-0.567214 3.0892692,-0.846031 2.4875205,-0.607511 3.9917585,-0.848538 6.1412122,-0.984184 0.32971,-0.02114 0.675904,-0.04438 0.769702,-0.05241 l 0.17035,-0.01268 -0.102717,0.139492 c -0.820511,1.1107 -1.721465,3.119254 -2.270263,5.061189 -0.257427,0.911562 -0.3800115,1.572829 -0.3850839,2.07999 -0.00334,0.38593 0.043539,0.611274 0.1745769,0.829559 0.16866,0.281099 0.377476,0.438458 0.683979,0.51501 0.439402,0.109903 0.769112,0.02536 1.920686,-0.489944 1.594315,-0.713864 2.39275,-0.963725 3.928846,-1.22948 0.285326,-0.04946 0.529734,-0.08623 0.54288,-0.08158 0.01268,0.0042 -0.09046,0.09764 -0.230374,0.207126 -0.535935,0.419746 -0.81568,0.655277 -1.012196,0.851708 -0.527916,0.527776 -1.1312,1.418246 -1.631459,2.408179 -0.393539,0.779031 -0.570228,1.260323 -0.69966,1.9074 -0.04227,0.205857 -0.08708,0.404529 -0.101449,0.440966 -0.02959,0.07905 -0.177537,0.147101 -0.43433,0.203321 -0.207548,0.04565 -0.65849,0.103563 -0.675271,0.08666 -0.0085,-0.0085 0.03382,-0.198672 0.08919,-0.426975 0.06171,-0.254046 0.09469,-0.439782 0.08496,-0.478629 -0.03804,-0.143719 -0.235446,-0.208816 -0.355917,-0.116244 -0.04777,0.03804 -0.07693,0.121317 -0.156824,0.455085 -0.05411,0.225301 -0.10948,0.45204 -0.12343,0.503526 l -0.02536,0.09384 -0.21727,-0.0042 c -0.119626,-0.0022 -0.27349,-0.0085 -0.342391,-0.01268 z"
       id="path3079" />
    <path
       style="fill:#ff002a;fill-opacity:1;stroke-width:0.0113224;stroke-linecap:round;stroke-miterlimit:4;stroke-dasharray:none;paint-order:markers stroke fill"
       d="M 47.792165,7.6691373 C 47.668736,7.6353209 47.359654,7.5626156 47.10565,7.504705 L 46.643803,7.3998742 45.532904,6.7526706 C 44.31209,6.0414694 44.287954,6.0311554 44.16985,6.16845 c -0.06256,0.073128 -0.07778,0.1859902 -0.03382,0.265036 0.01268,0.025362 0.281945,0.1952897 0.597283,0.3787437 0.315337,0.183454 0.569975,0.3368959 0.565959,0.3411229 -0.0042,0.00423 -0.140761,-0.00845 -0.303925,-0.029589 -0.841986,-0.1035627 -2.2276,-0.1166666 -3.030359,-0.029589 -0.39227,0.042693 -1.129919,0.1475241 -1.402902,0.1990941 L 40.391739,7.3270844 40.287331,7.1622295 C 40.013418,6.7307744 39.671619,6.1372121 39.494801,5.7867896 39.005689,4.817541 38.932828,4.3250474 39.199753,3.7925659 c 0.09046,-0.1804951 0.333514,-0.4424749 0.433442,-0.4675836 0.100604,-0.025362 0.285326,0.043961 0.646654,0.2426327 1.533433,0.8423242 2.403656,1.0519436 4.20648,1.0131393 0.952058,-0.021135 1.430041,-0.07651 2.592479,-0.3035022 1.086551,-0.2121979 1.383924,-0.2460143 1.83495,-0.2100844 0.668339,0.053261 1.706955,0.3981882 2.662437,0.8845103 0.369444,0.1881037 0.618502,0.3487316 0.872704,0.5638872 l 0.185991,0.1576689 -0.07397,0.016908 c -0.04227,0.00845 -0.287439,0.069746 -0.548151,0.1327294 -0.527029,0.1272342 -1.353248,0.3943838 -1.769824,0.5730189 -0.369444,0.1585144 -0.899207,0.4269321 -1.199117,0.6080612 L 48.796119,7.1535894 48.440202,6.818807 C 48.139236,6.5355946 48.072026,6.4840246 48.00583,6.4840246 c -0.09976,0 -0.224456,0.1179347 -0.224456,0.2117752 0,0.1010265 0.02959,0.1369565 0.336896,0.4390215 0.158091,0.1542873 0.286594,0.2874394 0.285748,0.2954708 -0.0022,0.016908 -0.362681,0.3030795 -0.37663,0.2996978 -0.0042,-0.0011 -0.109903,-0.029589 -0.233333,-0.061715 z"
       id="path3081" />
    <path
       style="fill:#ff002a;fill-opacity:1;stroke-width:0.0113224;stroke-linecap:round;stroke-miterlimit:4;stroke-dasharray:none;paint-order:markers stroke fill"
       d="M 47.879538,7.6782255 C 47.83135,7.6655443 47.535879,7.592839 47.222824,7.5197111 L 46.653483,7.386559 45.76242,6.8688299 C 44.736274,6.2726468 44.385556,6.0852194 44.296027,6.0852194 c -0.09976,0 -0.18599,0.1107487 -0.18599,0.2396737 0,0.1344202 0.0034,0.1369564 0.649106,0.5200117 0.267572,0.1589371 0.469963,0.2882848 0.449335,0.2878621 -0.02114,-3.804e-4 -0.183454,-0.016908 -0.361835,-0.038043 -0.45221,-0.052416 -2.05463,-0.076087 -2.558875,-0.038044 -0.479558,0.038044 -1.432787,0.1623187 -1.825099,0.2409419 -0.06002,0.012681 -0.07862,-0.00845 -0.240519,-0.2688404 -0.594197,-0.9564969 -0.962753,-1.6904679 -1.094341,-2.1793686 -0.102718,-0.382548 -0.0727,-0.7639124 0.08369,-1.0534231 0.06256,-0.1158212 0.255737,-0.3423911 0.344082,-0.404106 0.135266,-0.093841 0.19529,-0.075242 0.8698,0.2709539 1.551525,0.795404 2.216863,0.9469438 4.028733,0.917439 1.073882,-0.016908 1.311937,-0.044807 2.763971,-0.3170288 0.950355,-0.1779588 1.012027,-0.1859902 1.435451,-0.1847221 0.439021,0.00114 0.678399,0.04227 1.248206,0.2117752 0.69335,0.2071255 1.662613,0.6345648 2.136888,0.9428013 0.226569,0.147524 0.534286,0.3922702 0.534286,0.4252273 0,0.00845 -0.131884,0.049034 -0.293357,0.086232 -1.243725,0.2887075 -2.33184,0.7064669 -3.229792,1.2396247 L 48.797417,7.1338237 48.5197,6.876819 C 48.124048,6.5111792 48.088034,6.4841261 47.993643,6.4841261 c -0.119202,0 -0.213888,0.1018719 -0.213888,0.2303742 0,0.092572 0.01691,0.1179347 0.301388,0.4062195 L 48.382532,7.4284491 48.21345,7.5679417 C 48.036759,7.7137749 48.021542,7.7188474 47.879513,7.677845 Z"
       id="path3083" />
    <path
       style="fill:#ffffff;fill-opacity:1;stroke-width:0.0452899;stroke-linecap:round;stroke-miterlimit:4;stroke-dasharray:none;paint-order:markers stroke fill"
       d="m 11.692279,30.502073 c 0.184722,-0.867165 0.909647,-2.844777 1.435239,-3.916249 0.407065,-0.829982 0.787542,-1.431731 1.237455,-1.957702 l 0.649571,-0.759432 0.933079,-0.216425 c 2.659138,-0.617136 4.575289,-1.95115 9.525304,-6.631397 2.629072,-2.485817 3.954463,-3.507874 6.102932,-4.7062 2.586391,-1.442594 6.490636,-2.8679843 9.370427,-3.4210938 1.231917,-0.2367148 3.582525,-0.2341786 4.789335,0.00423 0.492198,0.097645 0.925386,0.1961351 0.962584,0.2189612 0.03804,0.021135 -0.08243,0.3246374 -0.266304,0.6706637 -0.183877,0.3457729 -0.474233,0.9585549 -0.645725,1.3615619 -0.335205,0.787457 -0.333936,1.069527 0.0042,1.409115 0.254468,0.254469 0.904461,0.267573 1.115645,0.02114 0.08285,-0.09595 0.427524,-0.749231 0.766068,-1.451429 0.509136,-1.056086 0.723109,-1.384007 1.237964,-1.8976782 0.992215,-0.9899328 2.441912,-1.6332759 4.581632,-2.0333239 1.432407,-0.267995 4.490074,-0.2426327 5.845634,0.047766 2.360245,0.5061034 4.645164,1.5977687 5.972627,2.8534841 L 65.80926,10.570389 65.406,10.51586 c -0.864347,-0.116667 -1.592372,0.380857 -1.521062,1.039601 0.04227,0.391425 0.415096,0.389311 0.577627,-0.0033 0.135265,-0.326751 0.445446,-0.508515 0.761799,-0.446546 0.101871,0.02113 0.460959,0.08961 0.797716,0.154288 0.540301,0.103985 0.655953,0.17035 0.983888,0.56262 0.204589,0.244746 0.35169,0.464382 0.327596,0.488591 -0.02536,0.02536 -0.189372,-0.0085 -0.366908,-0.06848 -0.177536,-0.06171 -0.517729,-0.09046 -0.756008,-0.06383 -1.893705,0.213466 -1.71972,2.972279 0.187259,2.970884 0.60227,-4.23e-4 1.065174,-0.245592 1.364661,-0.722657 0.161473,-0.257004 0.196557,-0.448784 0.166545,-0.911351 -0.02959,-0.431285 -0.0085,-0.549009 0.06932,-0.446165 0.05876,0.07693 0.787711,1.038417 1.619594,2.1369 0.913749,1.206527 1.952251,2.440642 2.623253,3.117351 0.610922,0.616091 1.065922,1.120154 1.011182,1.120154 -0.05495,0 -0.171618,0.110326 -0.259964,0.244746 -0.42727,0.652065 0.545417,1.328351 1.028061,0.714794 l 0.187681,-0.238828 1.482498,1.312231 c 1.753537,1.552089 1.795808,1.491811 -0.813622,1.160875 -5.48532,-0.69573 -11.340647,-2.519435 -16.15836,-5.03274 -1.265198,-0.660012 -1.592583,-0.872324 -1.573012,-1.020142 0.125543,-0.947578 0.0011,-1.235144 -0.533906,-1.235144 -0.383393,0 -0.57881,0.232487 -0.679414,0.807831 -0.08158,0.466454 -0.383393,0.734225 -1.046068,0.928711 -0.67044,0.196558 -0.810989,0.311957 -0.810989,0.665084 0,0.571624 0.542402,0.746159 1.389757,0.447222 l 0.416364,-0.147101 1.818084,0.940475 c 2.278114,1.178362 3.670872,1.798978 5.707972,2.54339 4.280497,1.564177 9.115456,2.671481 12.913321,2.957399 1.989195,0.149637 0.829292,0.443544 -1.743984,0.441727 -4.337097,-0.0034 -8.952727,-0.603877 -15.358754,-1.999001 -3.375697,-0.73521 -4.357133,-0.894655 -5.510598,-0.89512 -1.896326,-8.03e-4 -3.419544,0.509909 -11.315369,3.794046 -4.574697,1.902806 -5.658893,2.311717 -7.672561,2.893866 -2.696112,0.779426 -4.518435,0.911987 -7.106293,0.516926 -4.208732,-0.642511 -4.801139,-0.71416 -5.906006,-0.714329 -0.855372,-1.27e-4 -1.330577,0.0503 -1.797412,0.190217 -0.349154,0.104831 -1.37606,0.289131 -2.282297,0.409602 -2.046513,0.272644 -3.526135,0.643483 -4.925204,1.234115 l -1.080716,0.456226 z m 23.362414,-5.071277 c 2.084556,-0.689263 2.456368,-2.289525 1.023623,-4.405446 -0.174155,-0.257427 -0.492663,-0.566636 -0.707651,-0.687487 -0.334359,-0.188104 -0.489407,-0.211353 -1.072305,-0.162742 -0.801025,0.06721 -1.064412,0.186413 -1.200143,0.543388 -0.129347,0.3407 0.05749,0.809635 0.369867,0.928415 0.126389,0.04819 0.452548,0.06087 0.725108,0.02959 l 0.495523,-0.05876 0.30773,0.487252 c 0.169504,0.267995 0.361413,0.661576 0.427354,0.874662 0.115399,0.373671 0.108213,0.397342 -0.197403,0.670523 -0.698308,0.623954 -1.954109,0.729715 -2.906548,0.244746 -0.947479,-0.482336 -1.209556,-1.009321 -1.209556,-2.431935 0,-1.136217 0.246437,-2.257484 0.665422,-3.027259 0.31872,-0.585235 1.515384,-1.756199 2.082273,-2.037212 0.325483,-0.161474 0.565705,-0.192331 1.319671,-0.170351 0.812439,0.02536 0.945761,0.0034 1.123381,-0.174577 0.252778,-0.252777 0.259118,-0.707523 0.01268,-1.010307 -0.168659,-0.207971 -0.287862,-0.235869 -1.173344,-0.271377 -0.542415,-0.02113 -1.169146,0.0085 -1.393729,0.07017 -1.036304,0.278986 -2.64147,1.692427 -3.26086,2.871083 -0.547601,1.042095 -0.779454,1.986489 -0.845269,3.442579 -0.07482,1.655301 0.125544,2.400769 0.86091,3.205557 1.119661,1.225083 2.851765,1.632262 4.551997,1.070078 z m 7.718975,-2.210141 c 0.06594,-0.06594 0.120048,-0.267995 0.120048,-0.448744 0,-0.272222 -0.07313,-0.382125 -0.424396,-0.636298 -0.233333,-0.169082 -0.461847,-0.374094 -0.507669,-0.456099 -0.04607,-0.08158 -0.114553,-0.575246 -0.152596,-1.096609 -0.0744,-1.016437 -0.139493,-1.132554 -0.635579,-1.135344 -0.479799,-0.0022 -0.614473,0.352959 -0.548996,1.449794 0.06679,1.116942 0.28744,1.606181 0.953905,2.113892 0.452971,0.344927 0.969389,0.435511 1.195494,0.209239 z m 2.316706,-0.479348 c 0.274336,-0.274335 0.258273,-0.370289 -0.211352,-1.27399 -0.402415,-0.773833 -0.408756,-0.802069 -0.299698,-1.311133 0.212621,-0.992004 0.06806,-1.347443 -0.525084,-1.289702 -0.457621,0.04438 -0.703833,0.594775 -0.706074,1.578114 -0.0011,0.620319 0.0465,0.847932 0.279408,1.325293 0.543049,1.113532 1.01035,1.423882 1.462813,0.971418 z m 27.877231,-1.163833 c 0.247282,-0.223611 0.237983,-0.778017 -0.01691,-1.032993 -0.239251,-0.239251 -0.573767,-0.256159 -0.876466,-0.04438 -0.272222,0.19064 -0.303925,0.786682 -0.05664,1.059919 0.205857,0.227415 0.707849,0.236715 0.950228,0.01691 z M 62.469324,15.227049 c 0.563762,-0.284058 0.953454,-0.979774 0.851962,-1.520625 -0.139915,-0.745525 -0.864516,-1.279275 -1.726369,-1.271539 -0.950989,0.0085 -1.625838,0.63224 -1.625838,1.502632 0,1.179079 1.344316,1.872442 2.500245,1.289532 z m -2.420269,-3.42067 c 0.471401,-0.625012 0.838097,-0.691546 1.6821,-0.305193 0.638707,0.292512 0.888187,0.319565 0.970192,0.106099 0.102295,-0.266727 -0.02959,-0.394384 -0.695772,-0.679837 -0.804437,-0.344082 -1.539395,-0.380012 -1.924817,-0.09426 -0.582276,0.432047 -1.004601,1.328899 -0.685839,1.456387 0.203321,0.08116 0.259964,0.03804 0.654136,-0.483193 z"
       id="path3087" />
    <path
       style="fill:#ffffff;fill-opacity:1;stroke-width:0.0452899;stroke-linecap:round;stroke-miterlimit:4;stroke-dasharray:none;paint-order:markers stroke fill"
       d="m 11.689616,30.502073 c 0.167814,-0.818301 0.906984,-2.830489 1.43879,-3.916249 0.407064,-0.831292 0.785724,-1.430632 1.235806,-1.956857 l 0.648894,-0.758544 0.88971,-0.207548 c 2.671524,-0.623054 4.599637,-1.956899 9.442961,-6.532568 2.682037,-2.533849 3.991619,-3.552259 6.126435,-4.764365 2.529453,-1.436127 6.531469,-2.9024769 9.474074,-3.4713533 1.230396,-0.2379829 3.579101,-0.2362921 4.789335,0.00334 0.492198,0.097645 0.925386,0.1961351 0.962584,0.2189612 0.03804,0.021135 -0.08243,0.3246374 -0.266304,0.670706 -0.183877,0.3457731 -0.474233,0.9585541 -0.645725,1.3615201 -0.335205,0.787457 -0.333936,1.069527 0.0042,1.409115 0.254468,0.254469 0.904461,0.267573 1.115645,0.02114 0.08285,-0.09596 0.427524,-0.749273 0.766068,-1.451471 0.509136,-1.056045 0.723109,-1.3840078 1.237964,-1.8976789 0.990651,-0.9883266 2.477757,-1.6477747 4.60319,-2.0412286 1.411314,-0.2612316 4.482592,-0.232065 5.824076,0.055797 2.360245,0.5061034 4.645164,1.5977687 5.972627,2.8535265 L 65.80926,10.5706 65.406,10.516071 c -0.607723,-0.08201 -1.120929,0.09764 -1.349063,0.47157 -0.237983,0.390157 -0.250664,0.752627 -0.02959,0.837506 0.160628,0.06171 0.33436,-0.09342 0.592506,-0.5291 0.125966,-0.212621 0.630676,-0.223188 1.489431,-0.02959 0.43547,0.09722 0.594915,0.19698 0.89884,0.560464 0.203321,0.243056 0.349577,0.461804 0.325483,0.486013 -0.02536,0.02536 -0.189372,-0.0085 -0.366908,-0.06848 -0.177536,-0.06171 -0.517687,-0.09046 -0.756008,-0.06383 -1.893706,0.213466 -1.719721,2.972321 0.187258,2.970926 0.602017,-4.65e-4 1.064625,-0.245169 1.365506,-0.722699 0.166123,-0.263768 0.196135,-0.437076 0.157247,-0.912746 -0.05833,-0.7123 -0.18895,-0.837759 1.573012,1.507746 1.409286,1.875866 2.273464,2.88406 3.261397,3.80488 l 0.57006,0.531284 -0.237983,0.237983 c -0.292089,0.292089 -0.298007,0.443629 -0.02959,0.78285 0.269263,0.342391 0.706044,0.353381 0.964909,0.02536 l 0.187681,-0.238828 1.482498,1.312189 c 1.753283,1.551877 1.796019,1.490796 -0.81358,1.162862 C 69.448314,21.9601 63.556834,20.125363 58.720704,17.610324 l -1.597699,-0.830856 0.03382,-0.605481 c 0.02959,-0.524958 0.0085,-0.619855 -0.168237,-0.713526 -0.539781,-0.288708 -0.926091,-0.03382 -1.054087,0.69983 -0.08158,0.466454 -0.38297,0.734225 -1.046068,0.928711 -0.29547,0.08666 -0.598706,0.208817 -0.67399,0.271377 -0.19529,0.161896 -0.169505,0.628097 0.04565,0.822626 0.224456,0.203321 0.539317,0.208816 1.162764,0.02114 l 0.478418,-0.144142 1.90905,0.985438 c 1.049999,0.542035 2.538204,1.252898 3.307104,1.579733 4.635189,1.970299 10.146899,3.401733 14.67899,3.81218 1.573337,0.142451 1.727836,0.188526 1.198271,0.358031 -0.502118,0.160628 -3.669899,0.183877 -5.547035,0.04227 -3.982545,-0.303924 -7.556334,-0.858852 -12.277459,-1.90685 -5.183382,-1.150645 -6.080615,-1.163665 -9.09211,-0.132307 -1.5296,0.523942 -4.580532,1.738403 -8.632528,3.436353 -3.370157,1.412215 -4.769551,1.932551 -6.693154,2.488661 -2.728871,0.788979 -4.539697,0.922385 -7.137065,0.525845 -4.148032,-0.633212 -4.810143,-0.71416 -5.84484,-0.714329 -0.683176,-1.27e-4 -1.309061,0.05791 -1.647648,0.152174 -0.300543,0.0837 -1.287475,0.261654 -2.193656,0.394807 -2.798927,0.411714 -3.603661,0.611316 -5.25931,1.304961 l -1.046181,0.438302 z m 23.212143,-5.030486 c 1.280754,-0.357186 2.033577,-1.188604 2.033577,-2.246283 0,-0.967698 -0.89333,-2.549024 -1.665655,-2.948395 -0.3407,-0.176268 -1.484103,-0.134843 -1.862297,0.06763 -0.30773,0.164433 -0.434964,0.572766 -0.288708,0.925668 0.152174,0.367331 0.449293,0.479517 1.074643,0.405374 l 0.495523,-0.05876 0.30773,0.487252 c 0.169504,0.267995 0.361412,0.661618 0.427354,0.874662 0.115399,0.373671 0.108213,0.397342 -0.197403,0.670565 -0.698309,0.623955 -1.954109,0.729716 -2.906548,0.244746 -0.947479,-0.482336 -1.209556,-1.009363 -1.209556,-2.431977 0,-1.077715 0.231219,-2.193529 0.606708,-2.929867 0.28279,-0.554209 1.278077,-1.589921 1.928324,-2.006567 0.493677,-0.316183 0.53413,-0.324637 1.483808,-0.301389 0.860035,0.02114 0.999951,1.69e-4 1.174866,-0.174577 0.250241,-0.250241 0.254891,-0.705833 0.01268,-1.007348 -0.168659,-0.207971 -0.288285,-0.23587 -1.173344,-0.271377 -0.542458,-0.02114 -1.169189,0.0085 -1.393729,0.07017 -1.021425,0.275181 -2.653729,1.715675 -3.267496,2.883722 -0.541008,1.02954 -0.773071,1.978668 -0.838633,3.429982 -0.04946,1.098218 -0.02959,1.348205 0.152596,1.949503 0.400725,1.318699 1.535378,2.241591 3.113364,2.531946 0.541823,0.09976 1.256702,0.04227 1.99397,-0.164855 z m 7.871909,-2.250932 c 0.06594,-0.06594 0.120048,-0.265459 0.120048,-0.443164 0,-0.268418 -0.07566,-0.377899 -0.447602,-0.644794 -0.526395,-0.377899 -0.561057,-0.465272 -0.642681,-1.618101 -0.06679,-0.943478 -0.138225,-1.064287 -0.629957,-1.067035 -0.479799,-0.0022 -0.614473,0.352959 -0.548996,1.449794 0.06679,1.116942 0.28744,1.606181 0.953905,2.113892 0.452971,0.344927 0.969389,0.435511 1.195494,0.209239 z m 2.316706,-0.479348 c 0.273913,-0.273913 0.258273,-0.370289 -0.208816,-1.269045 l -0.408756,-0.785964 0.120894,-0.615289 c 0.142029,-0.721431 0.07693,-1.085451 -0.210084,-1.176544 -0.655278,-0.207971 -1.021666,0.341545 -1.033628,1.550131 -0.0085,0.661067 0.03382,0.825106 0.326328,1.397998 0.56093,1.091213 0.964697,1.34788 1.413864,0.898713 z m 27.877231,-1.163833 c 0.416787,-0.377053 0.09299,-1.232721 -0.466455,-1.232721 -0.548193,0 -0.864546,0.794684 -0.483773,1.21539 0.205857,0.227415 0.707849,0.236714 0.950228,0.01691 z M 62.615496,15.152061 c 0.746581,-0.461425 0.923441,-1.455698 0.374939,-2.107635 -0.358031,-0.425664 -0.765265,-0.602651 -1.38605,-0.602651 -0.975928,0 -1.635263,0.615501 -1.635263,1.526599 0,0.415942 0.05072,0.540427 0.361412,0.884158 0.198672,0.219807 0.502047,0.44308 0.674046,0.495791 0.483012,0.147947 1.194002,0.06171 1.611085,-0.196135 z m -2.566441,-3.345682 c 0.469034,-0.621926 0.806859,-0.682246 1.704545,-0.304348 0.70558,0.297162 0.867856,0.313647 0.951213,0.09638 0.093,-0.24221 -0.01268,-0.3407 -0.700041,-0.652488 -0.727294,-0.32971 -1.549244,-0.386775 -1.911882,-0.132729 -0.303925,0.213043 -0.822796,0.987608 -0.822796,1.228465 0,0.186413 0.154288,0.319565 0.326329,0.281099 0.04227,-0.0085 0.246014,-0.241787 0.452717,-0.51594 z"
       id="path3089" />
    <path
       style="fill:#ffffff;fill-opacity:1;stroke-width:0.0452899;stroke-linecap:round;stroke-miterlimit:4;stroke-dasharray:none;paint-order:markers stroke fill"
       d="m 11.689024,30.504778 c 0.168237,-0.821175 0.9069,-2.831799 1.439382,-3.918954 0.406219,-0.829221 0.78585,-1.430801 1.232678,-1.953179 l 0.645766,-0.754909 0.921075,-0.225725 c 2.757416,-0.676229 4.380252,-1.802823 9.469127,-6.573613 2.715007,-2.545291 3.971878,-3.520344 6.07516,-4.712921 2.535666,-1.437733 6.53316,-2.9021387 9.474074,-3.4706769 1.230396,-0.237983 3.579101,-0.2362921 4.789335,0.00334 0.492198,0.097645 0.921708,0.1935989 0.954426,0.2138888 0.03382,0.021135 -0.180073,0.5225056 -0.472373,1.1161811 -0.640724,1.300453 -0.7505,1.656074 -0.618405,2.003494 0.18134,0.476968 0.727632,0.670736 1.191339,0.422705 0.103986,-0.0558 0.48125,-0.704255 0.838097,-1.441198 0.921611,-1.9031322 1.667939,-2.6307343 3.437116,-3.3506855 2.15591,-0.8773948 5.678552,-1.134019 8.282178,-0.6034397 2.274056,0.4634103 4.563117,1.5472132 5.963454,2.8235572 l 0.499287,0.455084 -0.603357,-0.0042 c -0.692644,-0.0042 -1.058199,0.177114 -1.242752,0.622603 -0.272645,0.657687 0.153019,0.95954 0.507034,0.359722 0.260387,-0.441473 0.459143,-0.471951 1.601828,-0.246014 0.482518,0.09553 0.615078,0.174154 0.933967,0.555857 0.204589,0.244323 0.351691,0.464382 0.327596,0.488591 -0.02536,0.02536 -0.189371,-0.0085 -0.366907,-0.06848 -0.177537,-0.06171 -0.51773,-0.09046 -0.756008,-0.06383 -1.88893,0.213043 -1.714902,2.972266 0.187258,2.970913 0.601974,-4.65e-4 1.064582,-0.245169 1.365464,-0.722686 0.164855,-0.261654 0.196135,-0.438132 0.158514,-0.899642 -0.02536,-0.31576 -0.03382,-0.574202 -0.01691,-0.574202 0.01691,0 0.491044,0.61791 1.056792,1.373073 1.533942,2.047653 2.471586,3.171062 3.466422,4.15326 l 0.894305,0.882932 -0.23587,0.235869 c -0.289553,0.289553 -0.295471,0.442023 -0.02959,0.780737 0.26884,0.341968 0.706044,0.353381 0.963936,0.02536 l 0.186836,-0.23756 1.243374,1.091664 c 0.683852,0.60041 1.355699,1.206653 1.493036,1.347203 l 0.249396,0.255736 -0.8987,-0.06636 C 70.956738,22.403862 63.979184,20.344415 58.721575,17.610584 l -1.59774,-0.830772 0.03382,-0.611653 c 0.03382,-0.578302 0.02114,-0.618163 -0.228683,-0.731364 -0.455748,-0.207548 -0.774975,-0.01268 -0.936152,0.566467 -0.177959,0.641158 -0.420169,0.89574 -0.998218,1.049605 -0.68701,0.182609 -0.916623,0.353804 -0.916623,0.683345 0,0.572596 0.463961,0.733604 1.347528,0.467681 l 0.480489,-0.144565 1.707251,0.887045 c 2.889725,1.501435 5.226384,2.464512 8.39766,3.461209 3.126525,0.982576 6.957264,1.777798 9.786036,2.031506 1.572576,0.141183 1.728216,0.187258 1.198271,0.356763 -0.566708,0.18134 -3.807955,0.177113 -6.087421,-0.0085 -3.946645,-0.319988 -6.961533,-0.804915 -12.386153,-1.99173 -5.249168,-1.148447 -5.735744,-1.104739 -11.08415,0.995583 -1.15335,0.452929 -3.714676,1.496587 -5.691866,2.319242 -3.870386,1.610379 -5.192426,2.101506 -7.139784,2.652291 -3.175248,0.898079 -4.254625,0.923526 -8.787432,0.207125 -2.731788,-0.431793 -4.834394,-0.539752 -5.69185,-0.292089 -0.302234,0.08708 -1.298804,0.270109 -2.215003,0.40622 -2.744779,0.408333 -3.774432,0.67227 -5.506804,1.411398 l -0.781736,0.333514 0.06636,-0.324215 z m 22.516892,-4.873579 c 1.170921,-0.188103 2.177804,-0.792148 2.570568,-1.541815 0.09342,-0.177959 0.15471,-0.536455 0.151751,-0.883482 -0.0085,-1.046786 -1.01321,-2.710074 -1.790057,-2.966445 -0.397766,-0.131461 -1.408566,-0.06721 -1.740347,0.110326 -0.459988,0.246014 -0.42186,1.05565 0.06002,1.27516 0.136111,0.06214 0.454746,0.08412 0.73576,0.05072 l 0.495481,-0.05876 0.307729,0.487294 c 0.169082,0.267995 0.361413,0.661576 0.427313,0.874619 0.115398,0.373671 0.108212,0.397343 -0.197404,0.670565 -0.698308,0.623955 -1.954066,0.729716 -2.906548,0.244747 -0.947437,-0.482336 -1.209556,-1.009321 -1.209556,-2.431935 0,-1.077757 0.23122,-2.193529 0.606751,-2.92991 0.282789,-0.554208 1.278034,-1.58992 1.928324,-2.006566 0.493677,-0.316184 0.534088,-0.324638 1.483765,-0.301389 0.860036,0.02113 0.999951,1.69e-4 1.174909,-0.174577 0.2532,-0.253201 0.255313,-0.740918 0.0042,-0.991878 -0.255737,-0.255736 -0.717373,-0.333514 -1.724299,-0.290398 -0.979774,0.04227 -1.609815,0.310266 -2.478504,1.055579 -1.645124,1.411652 -2.339234,2.897544 -2.462199,5.270806 -0.06256,1.20829 0.04988,1.974105 0.382125,2.604428 0.584348,1.10791 1.843713,1.85166 3.431285,2.026405 0.05495,0.0042 0.391847,-0.03804 0.748948,-0.09342 z m 8.567752,-2.410544 c 0.06594,-0.06594 0.120048,-0.265459 0.120048,-0.443164 0,-0.268418 -0.07566,-0.377476 -0.443587,-0.641878 -0.537849,-0.386352 -0.559365,-0.435851 -0.625265,-1.441368 -0.06214,-0.948381 -0.213043,-1.248205 -0.628731,-1.248205 -0.495904,0 -0.635946,0.339855 -0.575668,1.396744 0.06256,1.094411 0.328864,1.699049 0.95792,2.172394 0.453055,0.341123 0.970953,0.430016 1.195494,0.205434 z m 2.316706,-0.479348 c 0.273913,-0.273913 0.258273,-0.370289 -0.205011,-1.265071 l -0.404952,-0.781991 0.124698,-0.719444 c 0.114976,-0.661956 0.109903,-0.735802 -0.06002,-0.923695 -0.352113,-0.389311 -0.867898,-0.210084 -1.063272,0.369022 -0.06975,0.20628 -0.128925,0.68977 -0.131884,1.07422 -0.0042,0.576528 0.04396,0.795263 0.276026,1.248234 0.600749,1.172542 1.010477,1.452034 1.463954,0.998556 z m 27.877231,-1.163833 c 0.415519,-0.376208 0.07862,-1.232721 -0.485253,-1.232721 -0.531298,0 -0.838435,0.802758 -0.464975,1.21539 0.205857,0.227415 0.707849,0.236714 0.950228,0.01691 z m -10.35249,-6.425202 c 0.735423,-0.454492 0.915495,-1.465842 0.375362,-2.107846 -0.354649,-0.421437 -0.73614,-0.588406 -1.343736,-0.588237 -0.654716,1.69e-4 -1.148097,0.236292 -1.4598,0.698858 -0.193176,0.287017 -0.227838,0.443925 -0.193176,0.876944 0.03382,0.433652 0.102718,0.589575 0.380857,0.876719 0.185991,0.191908 0.474445,0.391425 0.64061,0.442699 0.439643,0.136111 1.213616,0.03804 1.60001,-0.199094 z m -2.528439,-3.395223 c 0.430102,-0.568031 0.791895,-0.623405 1.666924,-0.254891 0.715471,0.300966 0.867645,0.31407 0.957004,0.08116 0.214735,-0.559239 -2.002214,-1.201412 -2.629846,-0.761799 -0.28279,0.198249 -0.810664,1.009631 -0.810664,1.246473 0,0.191063 0.188527,0.295471 0.363104,0.200362 0.06214,-0.03382 0.266304,-0.263768 0.453605,-0.511134 z"
       id="path3095" />
  </g>
</svg>
